HIERARCHY
ROOT Joint1
{
	OFFSET 0.000000 0.000000 0.000000
	CHANNELS 6 Xposition Yposition Zposition Xrotation Yrotation Zrotation
	JOINT Joint2
	{
		OFFSET -0.000000 0.000000 1.456275
		CHANNELS 6 Xposition Yposition Zposition Xrotation Yrotation Zrotation
		JOINT Joint3
		{
			OFFSET -0.000000 0.000002 1.471446
			CHANNELS 6 Xposition Yposition Zposition Xrotation Yrotation Zrotation
			JOINT Joint4
			{
				OFFSET 0.625745 0.000000 0.917755
				CHANNELS 6 Xposition Yposition Zposition Xrotation Yrotation Zrotation
				JOINT Joint5
				{
					OFFSET -0.629534 0.000001 0.940221
					CHANNELS 6 Xposition Yposition Zposition Xrotation Yrotation Zrotation
					JOINT Joint6
					{
						OFFSET -0.000001 0.113772 1.960660
						CHANNELS 6 Xposition Yposition Zposition Xrotation Yrotation Zrotation
						JOINT Joint7
						{
							OFFSET -0.669733 -0.113771 0.388340
							CHANNELS 6 Xposition Yposition Zposition Xrotation Yrotation Zrotation
							End Site
							{
								OFFSET 0.005509 0.005509 0.438980
							}
						}
					}
				}
			}
		}
	}
}
MOTION
Frames: 29
Frame Time: 0.041667
0.000000 0.000000 0.000000 -0.000000 1.019410 -84.250541 -0.000000 -0.000000 1.456275 0.000000 24.678426 0.000000 -0.000000 0.000002 1.471446 -0.000001 -1.133464 -37.384573 0.625744 0.000000 0.917755 0.000002 69.192705 0.000000 -0.629534 0.000001 0.940221 -0.000001 1.709735 58.600161 -0.000001 0.113772 1.960661 -88.303889 67.001984 -0.000003 -0.669734 -0.113771 0.388340 0.156235 3.090251 77.111449 
0.000000 0.000000 0.000000 -0.000000 1.019410 -86.424323 -0.000000 -0.000000 1.456275 -0.000000 26.475941 0.000000 -0.000000 0.000002 1.471446 -0.000001 -1.133462 -38.348490 0.625745 0.000001 0.917755 -0.000005 67.494201 0.000000 -0.629534 0.000001 0.940221 0.000000 1.709737 60.112563 -0.000001 0.113772 1.960661 -88.303889 66.409321 -0.000010 -0.669733 -0.113771 0.388340 0.170030 3.067652 75.619189 
0.000000 0.000000 0.000000 -0.000000 1.019410 -88.262259 -0.000000 0.000000 1.456275 -0.000000 27.995725 -0.000000 -0.000000 0.000002 1.471446 -0.000001 -1.133464 -39.163478 0.625744 0.000000 0.917755 -0.000011 66.058140 0.000000 -0.629534 0.000001 0.940221 -0.000002 1.709736 61.391298 -0.000001 0.113772 1.960660 -88.303903 65.908218 -0.000015 -0.669733 -0.113770 0.388340 0.181234 3.048266 74.357531 
0.000000 0.000000 0.000000 -0.000000 1.019410 -89.763753 -0.000000 -0.000000 1.456275 0.000000 29.237308 -0.000000 -0.000000 0.000002 1.471445 -0.000001 -1.133464 -39.829278 0.625745 0.000001 0.917755 -0.000010 64.884946 -0.000001 -0.629534 0.000001 0.940221 -0.000005 1.709736 62.435954 -0.000000 0.113772 1.960661 -88.303882 65.498837 -0.000005 -0.669733 -0.113771 0.388341 0.190072 3.032251 73.326835 
0.000000 0.000000 0.000000 -0.000000 1.019410 -92.273977 -0.000000 0.000000 1.456275 -0.000000 31.313019 -0.000000 -0.000000 0.000002 1.471446 -0.000001 -1.133464 -40.942384 0.625745 0.000001 0.917755 -0.000002 62.923575 0.000008 -0.629534 0.000001 0.940221 -0.000003 1.709737 64.182434 -0.000001 0.113772 1.960661 -88.303903 64.814431 -0.000003 -0.669732 -0.113771 0.388340 0.204183 3.005127 71.603735 
0.000000 0.000000 0.000000 -0.000000 1.019410 -96.285696 -0.000000 0.000000 1.456275 -0.000000 34.630323 0.000001 -0.000000 0.000002 1.471446 -0.000002 -1.133460 -42.721286 0.625744 0.000000 0.917755 -0.000000 59.789010 -0.000000 -0.629534 0.000001 0.940220 -0.000001 1.709736 66.973570 -0.000002 0.113772 1.960661 -88.303896 63.720658 -0.000006 -0.669733 -0.113770 0.388340 0.225030 2.960942 68.850062 
0.000000 0.000000 0.000000 -0.000000 1.019410 -98.751688 -0.000000 -0.000000 1.456275 -0.000000 36.669448 -0.000001 -0.000000 0.000002 1.471446 -0.000001 -1.133466 -43.814769 0.625745 0.000000 0.917755 0.000005 57.862207 0.000003 -0.629533 0.000001 0.940221 -0.000002 1.709736 68.689280 -0.000001 0.113772 1.960660 -88.303896 63.048322 -0.000008 -0.669733 -0.113771 0.388340 0.236782 2.933301 67.157466 
0.000000 0.000000 0.000000 -0.000000 1.019410 -100.297421 -0.000000 0.000000 1.456275 -0.000000 37.947616 -0.000000 -0.000000 0.000002 1.471446 -0.000001 -1.133465 -44.500195 0.625745 0.000001 0.917755 -0.000006 56.654445 0.000006 -0.629533 0.000001 0.940221 -0.000005 1.709736 69.764713 -0.000001 0.113772 1.960660 -88.303896 62.626886 -0.000012 -0.669733 -0.113771 0.388340 0.243728 2.915802 66.096526 
0.000000 0.000000 0.000000 -0.000000 1.019410 -102.303441 -0.000000 0.000000 1.456275 0.000000 39.606402 0.000000 -0.000000 0.000002 1.471446 -0.000001 -1.133462 -45.389718 0.625745 0.000000 0.917755 0.000001 55.087036 0.000007 -0.629534 0.000001 0.940221 -0.000003 1.709737 71.160394 -0.000001 0.113772 1.960660 -88.303896 62.079951 0.000001 -0.669733 -0.113771 0.388341 0.252254 2.892910 64.719683 
0.000000 0.000000 0.000000 -0.000000 1.019410 -104.309140 -0.000000 -0.000000 1.456275 -0.000001 41.264916 -0.000001 -0.000000 0.000002 1.471445 -0.000002 -1.133464 -46.279098 0.625744 0.000000 0.917755 -0.000001 53.519880 0.000004 -0.629534 0.000001 0.940221 -0.000000 1.709733 72.555850 -0.000002 0.113773 1.960661 -88.303896 61.533106 -0.000012 -0.669734 -0.113770 0.388339 0.260234 2.869823 63.343099 
0.000000 0.000000 0.000000 -0.000000 1.019410 -105.854224 -0.000000 -0.000000 1.456275 -0.000001 42.542537 0.000003 -0.000000 0.000002 1.471446 -0.000002 -1.133462 -46.964227 0.625745 0.000000 0.917755 -0.000001 52.312631 -0.000000 -0.629534 0.000001 0.940221 -0.000001 1.709738 73.630833 -0.000001 0.113772 1.960661 -88.303889 61.111854 -0.000010 -0.669733 -0.113771 0.388340 0.265992 2.851911 62.282678 
0.000000 0.000000 0.000000 -0.000000 1.019410 -108.320858 -0.000000 0.000000 1.456275 -0.000000 44.582209 -0.000002 -0.000000 0.000002 1.471446 -0.000000 -1.133468 -48.058003 0.625745 0.000000 0.917755 0.000002 50.385315 0.000003 -0.629534 0.000001 0.940221 0.000001 1.709736 75.346979 -0.000001 0.113772 1.960661 -88.303896 60.439333 -0.000009 -0.669733 -0.113771 0.388340 0.274502 2.823102 60.589809 
0.000000 0.000000 0.000000 -0.000000 1.019410 -112.332576 -0.000000 -0.000000 1.456275 -0.000002 47.899512 -0.000003 -0.000000 0.000002 1.471446 -0.000002 -1.133465 -49.836909 0.625745 0.000000 0.917755 -0.000003 47.250750 0.000002 -0.629534 0.000001 0.940220 -0.000002 1.709737 78.138122 -0.000001 0.113772 1.960660 -88.303896 59.345560 0.000001 -0.669734 -0.113771 0.388340 0.286507 2.775752 57.836635 
0.000000 0.000000 0.000000 -0.000000 1.019410 -114.834099 -0.000000 0.000000 1.456275 -0.000001 49.968035 0.000003 -0.000000 0.000002 1.471446 -0.000003 -1.133463 -50.946159 0.625745 0.000001 0.917755 -0.000002 45.296172 0.000004 -0.629534 0.000001 0.940221 0.000002 1.709737 79.878550 -0.000001 0.113772 1.960661 -88.303889 58.663525 -0.000007 -0.669733 -0.113770 0.388340 0.292836 2.745955 56.119935 
0.000000 0.000000 0.000000 -0.000000 1.019410 -116.344295 -0.000000 0.000000 1.456275 -0.000002 51.216809 0.000002 -0.000000 0.000002 1.471446 -0.000004 -1.133463 -51.615811 0.625745 0.000000 0.917755 -0.000001 44.116192 -0.000001 -0.629534 0.000001 0.940221 0.000002 1.709736 80.929259 -0.000001 0.113772 1.960661 -88.303889 58.251781 -0.000004 -0.669733 -0.113772 0.388340 0.296222 2.727879 55.083580 
0.000000 0.000000 0.000000 -0.000000 1.019410 -118.217379 -0.000000 0.000000 1.456275 0.000001 52.765657 -0.000000 -0.000000 0.000002 1.471446 -0.000002 -1.133462 -52.446386 0.625745 0.000000 0.917755 -0.000008 42.652653 -0.000000 -0.629534 0.000001 0.940221 -0.000001 1.709736 82.232438 -0.000001 0.113772 1.960661 -88.303889 57.741094 -0.000005 -0.669733 -0.113771 0.388340 0.299970 2.705374 53.798227 
0.000000 0.000000 0.000000 -0.000000 1.019410 -120.356020 -0.000000 0.000000 1.456275 -0.000002 54.534109 0.000002 -0.000000 0.000002 1.471446 -0.000002 -1.133464 -53.394720 0.625745 0.000000 0.917755 -0.000005 40.981620 -0.000000 -0.629534 0.000001 0.940221 -0.000004 1.709736 83.720395 -0.000001 0.113772 1.960660 -88.303889 57.158004 -0.000009 -0.669734 -0.113771 0.388341 0.303627 2.679593 52.330652 
0.000000 0.000000 0.000000 -0.000000 1.019410 -122.397345 -0.000000 0.000000 1.456275 0.000000 56.222081 -0.000007 -0.000000 0.000002 1.471446 -0.000002 -1.133463 -54.299901 0.625745 0.000000 0.917755 -0.000003 39.386621 -0.000001 -0.629534 0.000001 0.940221 -0.000002 1.709737 85.140630 -0.000001 0.113772 1.960660 -88.303889 56.601450 -0.000005 -0.669733 -0.113772 0.388341 0.306500 2.654904 50.929890 
0.000000 0.000000 0.000000 -0.000000 1.019410 -124.367732 -0.000000 -0.000000 1.456275 0.000002 57.851402 -0.000001 -0.000000 0.000002 1.471446 -0.000004 -1.133462 -55.173623 0.625745 0.000000 0.917755 -0.000003 37.847055 0.000001 -0.629534 0.000001 0.940221 -0.000001 1.709738 86.511531 -0.000001 0.113773 1.960661 -88.303889 56.064225 -0.000005 -0.669733 -0.113771 0.388340 0.308701 2.631010 49.577833 
0.000000 0.000000 0.000000 -0.000000 1.019410 -126.364510 -0.000000 -0.000000 1.456275 0.000000 59.502545 0.000003 -0.000000 0.000002 1.471446 -0.000001 -1.133464 -56.059051 0.625745 0.000000 0.917755 -0.000004 36.286862 0.000002 -0.629534 0.000001 0.940221 -0.000000 1.709736 87.900778 -0.000001 0.113772 1.960660 -88.303889 55.519821 -0.000002 -0.669733 -0.113771 0.388340 0.310349 2.606754 48.207694 
0.000000 0.000000 0.000000 -0.000000 1.019410 -128.379457 -0.000000 -0.000000 1.456275 0.000002 61.168702 0.000008 -0.000000 0.000002 1.471446 -0.000001 -1.133466 -56.952532 0.625745 0.000001 0.917755 -0.000006 34.712483 0.000001 -0.629534 0.000001 0.940221 -0.000001 1.709737 89.302674 -0.000001 0.113772 1.960660 -88.303889 54.970455 -0.000004 -0.669734 -0.113771 0.388341 0.311428 2.582241 46.825127 
0.000000 0.000000 0.000000 -0.000000 1.019410 -130.386180 -0.000000 -0.000000 1.456275 -0.000000 62.828069 0.000003 -0.000000 0.000002 1.471446 0.000001 -1.133465 -57.842365 0.625745 0.000000 0.917755 -0.000002 33.144528 0.000005 -0.629534 0.000001 0.940221 -0.000001 1.709738 90.698847 -0.000001 0.113772 1.960661 -88.303889 54.423333 -0.000004 -0.669733 -0.113771 0.388340 0.311915 2.557809 45.448215 
0.000000 0.000000 0.000000 -0.000000 1.019410 -132.391169 -0.000000 0.000000 1.456275 0.000002 64.485995 0.000002 -0.000000 0.000002 1.471445 -0.000005 -1.133465 -58.731431 0.625745 0.000000 0.917755 0.000002 31.577921 0.000003 -0.629534 0.000001 0.940221 -0.000002 1.709738 92.093811 -0.000001 0.113772 1.960660 -88.303896 53.876679 -0.000006 -0.669733 -0.113771 0.388340 0.311810 2.533395 44.072520 
0.000000 0.000000 0.000000 -0.000000 1.019410 -134.402659 -0.000000 0.000000 1.456275 -0.000005 66.149303 0.000001 -0.000000 0.000002 1.471445 0.000000 -1.133466 -59.623385 0.625744 0.000000 0.917755 -0.000002 30.006237 -0.000002 -0.629534 0.000001 0.940221 -0.000001 1.709736 93.493289 -0.000001 0.113772 1.960661 -88.303889 53.328259 -0.000002 -0.669734 -0.113771 0.388341 0.311122 2.508911 42.692395 
0.000000 0.000000 0.000000 -0.000000 1.019410 -136.402894 -0.000000 -0.000000 1.456275 -0.000006 67.803295 0.000000 -0.000000 0.000002 1.471446 -0.000004 -1.133465 -60.510340 0.625745 0.000001 0.917755 0.000000 28.443363 -0.000000 -0.629534 0.000001 0.940221 -0.000001 1.709735 94.884940 -0.000001 0.113772 1.960660 -88.303889 52.782903 -0.000005 -0.669734 -0.113771 0.388340 0.309845 2.484590 41.320015 
0.000000 0.000000 0.000000 -0.000000 1.019410 -138.385370 -0.000000 0.000000 1.456275 0.000006 69.442608 -0.000003 -0.000000 0.000002 1.471446 -0.000006 -1.133464 -61.389419 0.625745 0.000000 0.917755 0.000002 26.894333 -0.000001 -0.629534 0.000001 0.940221 -0.000000 1.709735 96.264256 -0.000001 0.113771 1.960660 -88.303889 52.242392 -0.000005 -0.669733 -0.113771 0.388340 0.308009 2.460518 39.959848 
0.000000 0.000000 0.000000 -0.000000 1.019410 -140.414619 -0.000000 0.000000 1.456275 0.000003 71.120595 0.000004 -0.000000 0.000001 1.471446 -0.000001 -1.133466 -62.289242 0.625745 0.000001 0.917755 -0.000002 25.308793 0.000002 -0.629534 0.000001 0.940221 -0.000001 1.709738 97.676076 -0.000001 0.113772 1.960661 -88.303889 51.689127 -0.000003 -0.669733 -0.113771 0.388339 0.305538 2.435932 38.567623 
0.000000 0.000000 0.000000 -0.000000 1.019410 -142.508359 -0.000000 0.000000 1.456275 0.000013 72.851911 0.000000 -0.000000 0.000001 1.471445 0.000001 -1.133465 -63.217663 0.625745 0.000000 0.917755 -0.000000 23.672843 0.000001 -0.629534 0.000001 0.940221 -0.000001 1.709734 99.132792 -0.000001 0.113772 1.960661 -88.303889 51.118273 -0.000003 -0.669733 -0.113771 0.388340 0.302362 2.410637 37.131166 
0.000000 0.000000 0.000000 -0.000000 1.019410 -144.426331 -0.000000 -0.000000 1.456275 -0.000001 74.437888 -0.000003 -0.000000 0.000002 1.471446 -0.000003 -1.133465 -64.068158 0.625745 0.000000 0.917755 0.000001 22.174226 0.000002 -0.629534 0.000001 0.940221 -0.000002 1.709735 100.467220 -0.000001 0.113772 1.960661 -88.303889 50.595350 -0.000002 -0.669733 -0.113771 0.388340 0.298896 2.387538 35.815316 
